<svg version="1.0" xmlns="http://www.w3.org/2000/svg"
 width="640.000000pt" height="640.000000pt" viewBox="0 0 640.000000 640.000000"
 preserveAspectRatio="xMidYMid meet">

<g transform="translate(0.000000,640.000000) scale(0.100000,-0.100000)"
fill="#000000" stroke="none">
<path d="M2932 6189 c-673 -48 -1345 -355 -1849 -842 -512 -496 -823 -1137
-903 -1862 -15 -135 -12 -491 5 -635 118 -1011 717 -1876 1625 -2347 793 -412
1774 -437 2596 -66 486 218 918 572 1224 1003 613 860 730 1971 311 2945 -288
670 -850 1242 -1514 1541 -477 216 -964 301 -1495 263z m554 -2599 c0 -479 -2
-870 -5 -870 -3 0 -27 24 -53 52 l-48 53 0 77 c0 43 -2 78 -4 78 -2 0 -23 -11
-47 -24 -221 -122 -706 -127 -944 -9 -208 104 -145 244 144 320 128 34 407 44
547 19 107 -18 221 -55 262 -85 17 -11 33 -21 36 -21 3 0 6 243 6 540 l0 540
50 100 c28 55 51 100 53 100 1 0 2 -392 3 -870z m404 -490 l150 0 250 100
c224 90 257 100 313 100 l62 0 -267 -107 c-147 -58 -265 -109 -263 -113 2 -3
122 -53 266 -110 l263 -105 -56 -3 c-52 -3 -78 6 -304 98 l-247 100 -159 0
-158 0 0 -288 0 -288 -50 -49 -50 -49 0 640 0 641 48 66 47 66 3 -350 2 -349
150 0z m1056 366 c18 -14 18 -15 -11 -26 -56 -22 -165 5 -125 30 23 15 114 12
136 -4z m-4128 -362 l223 -194 76 62 c42 35 97 82 122 105 l46 43 -65 57 c-35
32 -80 73 -100 90 l-35 32 49 1 c46 0 52 -4 127 -70 l80 -70 83 70 c82 69 85
70 140 70 l57 0 -111 -92 c-61 -51 -109 -96 -108 -100 4 -11 220 -198 229
-198 4 0 114 88 244 195 l236 195 56 0 c31 0 54 -2 52 -4 -2 -2 -119 -101
-259 -220 l-255 -216 -62 0 -62 0 -108 96 c-59 53 -114 98 -121 101 -7 3 -66
-40 -132 -96 l-119 -101 -62 0 -61 0 -242 212 c-132 116 -245 215 -250 220 -6
4 17 8 50 8 l59 -1 223 -195z m4112 -24 l0 -220 -50 0 -50 0 0 220 0 220 50 0
50 0 0 -220z m751 206 c66 -15 116 -42 137 -73 14 -23 14 -23 -33 -23 -38 0
-51 5 -66 24 -30 39 -110 61 -219 61 -214 -1 -312 -100 -147 -150 25 -7 103
-21 173 -30 217 -27 288 -51 300 -101 10 -39 -36 -80 -121 -107 -95 -30 -318
-32 -410 -4 -59 19 -125 59 -125 78 0 5 21 9 46 9 34 0 54 -6 76 -25 87 -74
361 -74 426 0 27 32 27 40 3 64 -26 26 -67 36 -254 61 -211 27 -297 61 -297
116 0 40 72 84 175 107 47 11 283 6 336 -7z"/>
<path d="M2685 3254 c-195 -30 -315 -95 -315 -170 0 -181 621 -256 909 -109
52 26 101 76 101 103 0 38 -39 80 -102 111 -148 72 -381 98 -593 65z"/>
</g>
</svg>
